<?xml version="1.0" encoding="utf-8"?><svg version="1.1" id="Layer_1" xmlns="http://www.w3.org/2000/svg" xmlns:xlink="http://www.w3.org/1999/xlink" x="0px" y="0px" width="122.88px" height="122.879px" viewBox="0 0 122.88 122.879" enable-background="new 0 0 122.88 122.879" xml:space="preserve"><g><path fill-rule="evenodd" clip-rule="evenodd" d="M61.438,0c33.929,0,61.441,27.513,61.441,61.438 c0,33.93-27.513,61.441-61.441,61.441C27.513,122.879,0,95.367,0,61.438C0,27.512,27.513,0,61.438,0L61.438,0z M61.438,28.975 c3.912,0,7.666,0.693,11.138,1.962l14.3-14.299c-7.504-4.272-16.187-6.712-25.438-6.712c-9.348,0-18.117,2.492-25.678,6.851 l14.267,14.264C53.579,29.707,57.425,28.975,61.438,28.975L61.438,28.975z M92.362,51.535c1,3.123,1.542,6.452,1.542,9.903 c0,4.016-0.732,7.863-2.068,11.414l14.267,14.268c4.356-7.561,6.852-16.33,6.852-25.682c0-8.814-2.218-17.114-6.123-24.372 L92.362,51.535L92.362,51.535z M71.056,92.455c-3.038,0.941-6.271,1.449-9.617,1.449c-3.451,0-6.78-0.543-9.903-1.543 l-14.469,14.467c7.257,3.906,15.558,6.125,24.372,6.125c8.718,0,16.927-2.17,24.125-5.992L71.056,92.455L71.056,92.455 L71.056,92.455z M30.939,72.574c-1.271-3.473-1.964-7.225-1.964-11.137c0-3.344,0.508-6.576,1.449-9.615L15.918,37.316 c-3.822,7.198-5.992,15.408-5.992,24.122c0,9.25,2.442,17.932,6.712,25.436L30.939,72.574L30.939,72.574L30.939,72.574z M83.914,61.438c0,1.107-0.081,2.195-0.235,3.26c-0.022,0.158-0.049,0.322-0.075,0.48l-0.002,0.014 c-0.932,5.545-3.896,10.4-8.096,13.775l-0.031,0.023c-0.109,0.09-0.221,0.176-0.329,0.262l-0.065,0.049 c-0.875,0.666-1.801,1.273-2.762,1.807l-0.002,0.002c-0.131,0.072-0.263,0.145-0.396,0.213l-0.048,0.027 c-0.134,0.068-0.269,0.139-0.401,0.205l-0.008,0.004c-0.997,0.498-2.041,0.924-3.104,1.268l-0.039,0.012 c-0.146,0.049-0.293,0.094-0.439,0.137l-0.022,0.006c-0.149,0.047-0.302,0.09-0.454,0.133l-0.012,0.002 c-0.932,0.254-1.888,0.451-2.846,0.582l-0.077,0.012c-0.141,0.02-0.284,0.035-0.426,0.055l-0.082,0.008 c-0.141,0.016-0.28,0.029-0.424,0.043l-0.098,0.01l-0.424,0.033l-0.072,0.006c-0.149,0.008-0.299,0.018-0.451,0.023 c-0.35,0.018-0.701,0.025-1.055,0.025c-0.474,0-0.945-0.016-1.413-0.047c-5.388-0.334-10.262-2.568-13.96-6.039l-0.002-0.002 c-0.914-0.854-1.76-1.797-2.518-2.793l-0.03-0.039c-0.09-0.117-0.181-0.24-0.27-0.361l-0.014-0.02 c-0.086-0.121-0.179-0.248-0.264-0.371l-0.014-0.021c-0.533-0.771-1.025-1.58-1.458-2.41l-0.022-0.043 c-0.063-0.123-0.125-0.248-0.186-0.369l-0.035-0.07c-0.058-0.119-0.119-0.246-0.175-0.365l-0.043-0.088 c-0.056-0.123-0.11-0.248-0.165-0.371l-0.029-0.068c-0.057-0.127-0.111-0.256-0.166-0.385l-0.032-0.08 c-0.052-0.127-0.104-0.256-0.157-0.385l-0.006-0.02c-0.222-0.58-0.426-1.174-0.603-1.77l-0.021-0.072 c-0.038-0.133-0.074-0.266-0.11-0.398l-0.025-0.088c-0.036-0.129-0.07-0.266-0.101-0.396l-0.024-0.1 c-0.032-0.125-0.063-0.256-0.09-0.381l-0.027-0.125c-0.025-0.127-0.057-0.266-0.082-0.395l-0.008-0.049 c-0.091-0.463-0.168-0.93-0.229-1.404c-0.128-0.975-0.195-1.961-0.195-2.945v-0.004c0-0.354,0.012-0.703,0.025-1.049 c0.326-7.102,3.952-13.346,9.379-17.232c7.67-4.949,18.448-4.953,26.123-0.012c5.344,3.819,8.946,9.921,9.377,16.881l0.009-0.007 C83.9,60.485,83.914,60.957,83.914,61.438L83.914,61.438L83.914,61.438z" fill="#ffffff"/></g></svg>